<mxfile host="app.diagrams.net" modified="2023-05-02T17:28:33.146Z" agent="Mozilla/5.0 (Windows NT 10.0; Win64; x64; rv:109.0) Gecko/20100101 Firefox/112.0" etag="xGNqPD_niVOJ022Xs9IA" version="21.2.3" type="device">
  <diagram id="nhp_7rRbsJUrWBSMZgtv" name="Page-1">
    <mxGraphModel dx="1434" dy="1354" grid="1" gridSize="10" guides="1" tooltips="1" connect="1" arrows="1" fold="1" page="1" pageScale="1" pageWidth="520" pageHeight="600" math="0" shadow="0">
      <root>
        <mxCell id="0" />
        <mxCell id="1" parent="0" />
        <mxCell id="sLgVvRYrVAXlJ8nYai_G-16" value="" style="rounded=1;whiteSpace=wrap;html=1;fontFamily=Georgia;fillColor=none;dashed=1;strokeWidth=2;strokeColor=#B266FF;connectable=0;" parent="1" vertex="1">
          <mxGeometry x="190" y="700" width="140" height="390" as="geometry" />
        </mxCell>
        <mxCell id="sLgVvRYrVAXlJ8nYai_G-20" value="" style="rounded=1;whiteSpace=wrap;html=1;fontFamily=Georgia;fillColor=none;dashed=1;strokeWidth=2;strokeColor=#FF8000;connectable=0;" parent="1" vertex="1">
          <mxGeometry x="190" y="-80" width="140" height="180" as="geometry" />
        </mxCell>
        <mxCell id="apTINImMdSON69x1LJTN-12" value="" style="rounded=1;whiteSpace=wrap;html=1;fontFamily=Georgia;fillColor=none;dashed=1;strokeWidth=2;strokeColor=#FF6666;connectable=0;" parent="1" vertex="1">
          <mxGeometry x="30" y="150" width="140" height="540" as="geometry" />
        </mxCell>
        <mxCell id="apTINImMdSON69x1LJTN-14" value="" style="rounded=1;whiteSpace=wrap;html=1;fontFamily=Georgia;fillColor=none;dashed=1;strokeWidth=2;strokeColor=#3399FF;connectable=0;" parent="1" vertex="1">
          <mxGeometry x="350" y="150" width="140" height="180" as="geometry" />
        </mxCell>
        <mxCell id="apTINImMdSON69x1LJTN-13" value="" style="rounded=1;whiteSpace=wrap;html=1;fontFamily=Georgia;fillColor=none;dashed=1;strokeWidth=2;strokeColor=#97D077;connectable=0;" parent="1" vertex="1">
          <mxGeometry x="190" y="150" width="140" height="300" as="geometry" />
        </mxCell>
        <mxCell id="apTINImMdSON69x1LJTN-1" value="New Dofus Version" style="ellipse;whiteSpace=wrap;html=1;aspect=fixed;fontFamily=Georgia;" parent="1" vertex="1">
          <mxGeometry x="220" y="-200" width="80" height="80" as="geometry" />
        </mxCell>
        <mxCell id="apTINImMdSON69x1LJTN-2" value="*.d2o" style="rounded=1;whiteSpace=wrap;html=1;fontFamily=Helvetica;" parent="1" vertex="1">
          <mxGeometry x="200" y="160" width="120" height="40" as="geometry" />
        </mxCell>
        <mxCell id="apTINImMdSON69x1LJTN-3" value="*.d2i" style="rounded=1;whiteSpace=wrap;html=1;fontFamily=Helvetica;" parent="1" vertex="1">
          <mxGeometry x="360" y="160" width="120" height="40" as="geometry" />
        </mxCell>
        <mxCell id="apTINImMdSON69x1LJTN-4" value="DofusInvoker.swf" style="rounded=1;whiteSpace=wrap;html=1;fontFamily=Helvetica;" parent="1" vertex="1">
          <mxGeometry x="40" y="160" width="120" height="40" as="geometry" />
        </mxCell>
        <mxCell id="apTINImMdSON69x1LJTN-5" value="DofusInvoker/" style="rounded=1;whiteSpace=wrap;html=1;fontFamily=Helvetica;" parent="1" vertex="1">
          <mxGeometry x="40" y="280" width="120" height="40" as="geometry" />
        </mxCell>
        <mxCell id="apTINImMdSON69x1LJTN-6" value="entities_json/" style="rounded=1;whiteSpace=wrap;html=1;fontFamily=Helvetica;" parent="1" vertex="1">
          <mxGeometry x="200" y="280" width="120" height="40" as="geometry" />
        </mxCell>
        <mxCell id="apTINImMdSON69x1LJTN-7" value="translations_json/" style="rounded=1;whiteSpace=wrap;html=1;fontFamily=Helvetica;" parent="1" vertex="1">
          <mxGeometry x="360" y="280" width="120" height="40" as="geometry" />
        </mxCell>
        <mxCell id="apTINImMdSON69x1LJTN-8" value="entities_java/" style="rounded=1;whiteSpace=wrap;html=1;fontFamily=Helvetica;opacity=20;textOpacity=20;" parent="1" vertex="1">
          <mxGeometry x="200" y="400" width="120" height="40" as="geometry" />
        </mxCell>
        <mxCell id="apTINImMdSON69x1LJTN-9" value="events.json" style="rounded=1;whiteSpace=wrap;html=1;fontFamily=Helvetica;" parent="1" vertex="1">
          <mxGeometry x="40" y="400" width="120" height="40" as="geometry" />
        </mxCell>
        <mxCell id="apTINImMdSON69x1LJTN-10" value="events.properties" style="rounded=1;whiteSpace=wrap;html=1;fontFamily=Helvetica;" parent="1" vertex="1">
          <mxGeometry x="40" y="520" width="120" height="40" as="geometry" />
        </mxCell>
        <mxCell id="apTINImMdSON69x1LJTN-16" style="edgeStyle=orthogonalEdgeStyle;rounded=0;orthogonalLoop=1;jettySize=auto;html=1;exitX=0.5;exitY=1;exitDx=0;exitDy=0;entryX=0.5;entryY=0;entryDx=0;entryDy=0;fontFamily=Georgia;" parent="1" source="apTINImMdSON69x1LJTN-4" target="apTINImMdSON69x1LJTN-5" edge="1">
          <mxGeometry relative="1" as="geometry" />
        </mxCell>
        <mxCell id="apTINImMdSON69x1LJTN-17" style="edgeStyle=orthogonalEdgeStyle;rounded=0;orthogonalLoop=1;jettySize=auto;html=1;exitX=0.5;exitY=1;exitDx=0;exitDy=0;entryX=0.5;entryY=0;entryDx=0;entryDy=0;fontFamily=Georgia;" parent="1" source="apTINImMdSON69x1LJTN-5" target="apTINImMdSON69x1LJTN-9" edge="1">
          <mxGeometry relative="1" as="geometry">
            <mxPoint x="110" y="210" as="sourcePoint" />
            <mxPoint x="110" y="290" as="targetPoint" />
          </mxGeometry>
        </mxCell>
        <mxCell id="apTINImMdSON69x1LJTN-18" style="edgeStyle=orthogonalEdgeStyle;rounded=0;orthogonalLoop=1;jettySize=auto;html=1;exitX=0.5;exitY=1;exitDx=0;exitDy=0;entryX=0.5;entryY=0;entryDx=0;entryDy=0;fontFamily=Georgia;" parent="1" source="apTINImMdSON69x1LJTN-9" target="apTINImMdSON69x1LJTN-10" edge="1">
          <mxGeometry relative="1" as="geometry">
            <mxPoint x="110" y="330" as="sourcePoint" />
            <mxPoint x="110" y="410" as="targetPoint" />
          </mxGeometry>
        </mxCell>
        <mxCell id="apTINImMdSON69x1LJTN-19" style="edgeStyle=orthogonalEdgeStyle;rounded=0;orthogonalLoop=1;jettySize=auto;html=1;entryX=0.5;entryY=0;entryDx=0;entryDy=0;fontFamily=Georgia;exitX=0.5;exitY=1;exitDx=0;exitDy=0;opacity=20;" parent="1" source="apTINImMdSON69x1LJTN-6" target="apTINImMdSON69x1LJTN-8" edge="1">
          <mxGeometry relative="1" as="geometry">
            <mxPoint x="110" y="450" as="sourcePoint" />
            <mxPoint x="110" y="530" as="targetPoint" />
          </mxGeometry>
        </mxCell>
        <mxCell id="apTINImMdSON69x1LJTN-20" style="edgeStyle=orthogonalEdgeStyle;rounded=0;orthogonalLoop=1;jettySize=auto;html=1;fontFamily=Georgia;exitX=0.5;exitY=1;exitDx=0;exitDy=0;" parent="1" source="apTINImMdSON69x1LJTN-2" edge="1">
          <mxGeometry relative="1" as="geometry">
            <mxPoint x="270" y="330" as="sourcePoint" />
            <mxPoint x="260" y="280" as="targetPoint" />
          </mxGeometry>
        </mxCell>
        <mxCell id="apTINImMdSON69x1LJTN-21" style="edgeStyle=orthogonalEdgeStyle;rounded=0;orthogonalLoop=1;jettySize=auto;html=1;fontFamily=Georgia;exitX=0.5;exitY=1;exitDx=0;exitDy=0;entryX=0.5;entryY=0;entryDx=0;entryDy=0;" parent="1" source="apTINImMdSON69x1LJTN-3" target="apTINImMdSON69x1LJTN-7" edge="1">
          <mxGeometry relative="1" as="geometry">
            <mxPoint x="270" y="210" as="sourcePoint" />
            <mxPoint x="270" y="290" as="targetPoint" />
          </mxGeometry>
        </mxCell>
        <mxCell id="apTINImMdSON69x1LJTN-22" style="edgeStyle=orthogonalEdgeStyle;rounded=0;orthogonalLoop=1;jettySize=auto;html=1;entryX=0.5;entryY=0;entryDx=0;entryDy=0;fontFamily=Georgia;exitX=0.5;exitY=1;exitDx=0;exitDy=0;" parent="1" source="HrQ2cZQvFkraFqn7cPHn-2" target="apTINImMdSON69x1LJTN-4" edge="1">
          <mxGeometry relative="1" as="geometry">
            <mxPoint x="230" y="-130" as="sourcePoint" />
            <mxPoint x="110" y="290" as="targetPoint" />
            <Array as="points">
              <mxPoint x="260" y="80" />
              <mxPoint x="100" y="80" />
            </Array>
          </mxGeometry>
        </mxCell>
        <mxCell id="apTINImMdSON69x1LJTN-23" style="edgeStyle=orthogonalEdgeStyle;rounded=0;orthogonalLoop=1;jettySize=auto;html=1;exitX=0.5;exitY=1;exitDx=0;exitDy=0;fontFamily=Georgia;" parent="1" source="apTINImMdSON69x1LJTN-34" edge="1">
          <mxGeometry relative="1" as="geometry">
            <mxPoint x="270" y="90" as="sourcePoint" />
            <mxPoint x="420" y="160" as="targetPoint" />
            <Array as="points">
              <mxPoint x="260" y="80" />
              <mxPoint x="420" y="80" />
            </Array>
          </mxGeometry>
        </mxCell>
        <mxCell id="apTINImMdSON69x1LJTN-24" style="edgeStyle=orthogonalEdgeStyle;rounded=0;orthogonalLoop=1;jettySize=auto;html=1;fontFamily=Georgia;" parent="1" source="apTINImMdSON69x1LJTN-34" target="apTINImMdSON69x1LJTN-2" edge="1">
          <mxGeometry relative="1" as="geometry">
            <mxPoint x="260" y="80" as="sourcePoint" />
            <mxPoint x="430" y="170" as="targetPoint" />
          </mxGeometry>
        </mxCell>
        <mxCell id="apTINImMdSON69x1LJTN-25" value="&lt;div style=&quot;font-size: 12px&quot;&gt;&lt;font style=&quot;font-size: 12px&quot;&gt;A1&lt;/font&gt;&lt;/div&gt;&lt;div style=&quot;font-size: 12px&quot;&gt;&lt;font style=&quot;font-size: 12px&quot;&gt;&lt;font style=&quot;font-size: 12px&quot; color=&quot;#000000&quot;&gt;Extract&lt;/font&gt;&lt;br&gt;&lt;/font&gt;&lt;/div&gt;" style="text;html=1;strokeColor=none;align=center;verticalAlign=middle;whiteSpace=wrap;rounded=0;dashed=1;fontFamily=Georgia;spacing=0;fontSize=11;fontColor=#FF6666;labelBackgroundColor=none;fillColor=default;" parent="1" vertex="1">
          <mxGeometry x="80" y="220" width="40" height="30" as="geometry" />
        </mxCell>
        <mxCell id="apTINImMdSON69x1LJTN-26" value="&lt;div&gt;&lt;font color=&quot;#FF6666&quot;&gt;A3&lt;/font&gt;&lt;br&gt;&lt;/div&gt;&lt;div&gt;Build&lt;/div&gt;" style="text;html=1;strokeColor=none;align=center;verticalAlign=middle;whiteSpace=wrap;rounded=0;dashed=1;fontFamily=Georgia;fillColor=#FFFFFF;" parent="1" vertex="1">
          <mxGeometry x="80" y="460" width="40" height="30" as="geometry" />
        </mxCell>
        <mxCell id="apTINImMdSON69x1LJTN-28" value="&lt;div&gt;&lt;font color=&quot;#FF6666&quot;&gt;A2&lt;/font&gt;&lt;br&gt;&lt;/div&gt;&lt;div&gt;Build&lt;/div&gt;" style="text;html=1;strokeColor=none;align=center;verticalAlign=middle;whiteSpace=wrap;rounded=0;dashed=1;fontFamily=Georgia;fillColor=#FFFFFF;" parent="1" vertex="1">
          <mxGeometry x="80" y="340" width="40" height="30" as="geometry" />
        </mxCell>
        <mxCell id="apTINImMdSON69x1LJTN-29" value="&lt;div&gt;&lt;font color=&quot;#97D077&quot;&gt;B2&lt;/font&gt;&lt;br&gt;&lt;/div&gt;&lt;div&gt;Build&lt;/div&gt;" style="text;html=1;strokeColor=none;align=center;verticalAlign=middle;whiteSpace=wrap;rounded=0;dashed=1;fontFamily=Georgia;fillColor=#FFFFFF;textOpacity=20;" parent="1" vertex="1">
          <mxGeometry x="240" y="340" width="40" height="30" as="geometry" />
        </mxCell>
        <mxCell id="apTINImMdSON69x1LJTN-30" value="&lt;div&gt;&lt;font color=&quot;#97D077&quot;&gt;B1&lt;/font&gt;&lt;br&gt;&lt;/div&gt;&lt;div&gt;Extract &amp;amp; Build&lt;/div&gt;" style="text;html=1;strokeColor=none;align=center;verticalAlign=middle;whiteSpace=wrap;rounded=0;dashed=1;fontFamily=Georgia;fillColor=#FFFFFF;" parent="1" vertex="1">
          <mxGeometry x="200" y="220" width="120" height="30" as="geometry" />
        </mxCell>
        <mxCell id="apTINImMdSON69x1LJTN-32" value="&lt;div&gt;&lt;font color=&quot;#3399FF&quot;&gt;C1&lt;/font&gt;&lt;br&gt;&lt;/div&gt;&lt;div&gt;Extract &amp;amp; Build&lt;/div&gt;" style="text;html=1;strokeColor=none;align=center;verticalAlign=middle;whiteSpace=wrap;rounded=0;dashed=1;fontFamily=Georgia;fillColor=#FFFFFF;" parent="1" vertex="1">
          <mxGeometry x="360" y="220" width="120" height="30" as="geometry" />
        </mxCell>
        <mxCell id="apTINImMdSON69x1LJTN-47" value="Job A" style="text;html=1;strokeColor=none;align=center;verticalAlign=middle;whiteSpace=wrap;rounded=0;dashed=1;fontFamily=Georgia;fontColor=#FF6666;" parent="1" vertex="1">
          <mxGeometry x="50" y="130" width="40" height="20" as="geometry" />
        </mxCell>
        <mxCell id="apTINImMdSON69x1LJTN-51" value="Job B" style="text;html=1;strokeColor=none;align=center;verticalAlign=middle;whiteSpace=wrap;rounded=0;dashed=1;fontFamily=Georgia;fontColor=#97D077;" parent="1" vertex="1">
          <mxGeometry x="200" y="130" width="40" height="20" as="geometry" />
        </mxCell>
        <mxCell id="apTINImMdSON69x1LJTN-52" value="&lt;font color=&quot;#3399FF&quot;&gt;Job C&lt;br&gt;&lt;/font&gt;" style="text;html=1;strokeColor=none;align=center;verticalAlign=middle;whiteSpace=wrap;rounded=0;dashed=1;fontFamily=Georgia;fontColor=#FF6666;" parent="1" vertex="1">
          <mxGeometry x="370" y="130" width="40" height="20" as="geometry" />
        </mxCell>
        <mxCell id="MlVKwU8iSEv3AwQgIC7t-1" value="events_java/" style="rounded=1;whiteSpace=wrap;html=1;fontFamily=Helvetica;opacity=20;textOpacity=20;" parent="1" vertex="1">
          <mxGeometry x="40" y="640" width="120" height="40" as="geometry" />
        </mxCell>
        <mxCell id="MlVKwU8iSEv3AwQgIC7t-2" style="edgeStyle=orthogonalEdgeStyle;rounded=0;orthogonalLoop=1;jettySize=auto;html=1;entryX=0.5;entryY=0;entryDx=0;entryDy=0;fontFamily=Georgia;exitX=0.5;exitY=1;exitDx=0;exitDy=0;opacity=20;textOpacity=20;" parent="1" source="apTINImMdSON69x1LJTN-10" target="MlVKwU8iSEv3AwQgIC7t-1" edge="1">
          <mxGeometry relative="1" as="geometry">
            <mxPoint x="120" y="580" as="sourcePoint" />
            <mxPoint x="110" y="530" as="targetPoint" />
          </mxGeometry>
        </mxCell>
        <mxCell id="MlVKwU8iSEv3AwQgIC7t-3" value="&lt;div&gt;&lt;font color=&quot;#FF6666&quot;&gt;A4&lt;/font&gt;&lt;br&gt;&lt;/div&gt;&lt;div&gt;Build&lt;/div&gt;" style="text;html=1;strokeColor=none;align=center;verticalAlign=middle;whiteSpace=wrap;rounded=0;dashed=1;fontFamily=Georgia;fillColor=#FFFFFF;textOpacity=20;" parent="1" vertex="1">
          <mxGeometry x="80" y="580" width="40" height="30" as="geometry" />
        </mxCell>
        <mxCell id="sLgVvRYrVAXlJ8nYai_G-1" value="data/" style="rounded=1;whiteSpace=wrap;html=1;fontFamily=Helvetica;" parent="1" vertex="1">
          <mxGeometry x="200" y="760" width="120" height="40" as="geometry" />
        </mxCell>
        <mxCell id="sLgVvRYrVAXlJ8nYai_G-2" style="edgeStyle=orthogonalEdgeStyle;rounded=0;orthogonalLoop=1;jettySize=auto;html=1;exitX=0.5;exitY=1;exitDx=0;exitDy=0;fontFamily=Georgia;entryX=0.5;entryY=0;entryDx=0;entryDy=0;" parent="1" source="MlVKwU8iSEv3AwQgIC7t-1" target="sLgVvRYrVAXlJ8nYai_G-1" edge="1">
          <mxGeometry relative="1" as="geometry">
            <mxPoint x="110" y="450" as="sourcePoint" />
            <mxPoint x="240" y="780" as="targetPoint" />
            <Array as="points">
              <mxPoint x="100" y="720" />
              <mxPoint x="260" y="720" />
            </Array>
          </mxGeometry>
        </mxCell>
        <mxCell id="sLgVvRYrVAXlJ8nYai_G-3" style="edgeStyle=orthogonalEdgeStyle;rounded=0;orthogonalLoop=1;jettySize=auto;html=1;fontFamily=Georgia;exitX=0.5;exitY=1;exitDx=0;exitDy=0;entryX=0.5;entryY=0;entryDx=0;entryDy=0;" parent="1" source="apTINImMdSON69x1LJTN-8" target="sLgVvRYrVAXlJ8nYai_G-1" edge="1">
          <mxGeometry relative="1" as="geometry">
            <mxPoint x="265" y="439" as="sourcePoint" />
            <mxPoint x="320" y="650" as="targetPoint" />
          </mxGeometry>
        </mxCell>
        <mxCell id="sLgVvRYrVAXlJ8nYai_G-4" style="edgeStyle=orthogonalEdgeStyle;rounded=0;orthogonalLoop=1;jettySize=auto;html=1;fontFamily=Georgia;exitX=0.535;exitY=1.007;exitDx=0;exitDy=0;exitPerimeter=0;entryX=0.5;entryY=0;entryDx=0;entryDy=0;" parent="1" source="apTINImMdSON69x1LJTN-7" target="sLgVvRYrVAXlJ8nYai_G-1" edge="1">
          <mxGeometry relative="1" as="geometry">
            <mxPoint x="270" y="450" as="sourcePoint" />
            <mxPoint x="310" y="790" as="targetPoint" />
            <Array as="points">
              <mxPoint x="424" y="720" />
              <mxPoint x="260" y="720" />
            </Array>
          </mxGeometry>
        </mxCell>
        <mxCell id="sLgVvRYrVAXlJ8nYai_G-9" value="&lt;div&gt;Commit &amp;amp; Push&lt;br&gt;&lt;/div&gt;" style="text;html=1;strokeColor=none;align=center;verticalAlign=middle;whiteSpace=wrap;rounded=0;dashed=1;fontFamily=Georgia;fillColor=#FFFFFF;" parent="1" vertex="1">
          <mxGeometry x="215" y="710" width="90" height="20" as="geometry" />
        </mxCell>
        <mxCell id="sLgVvRYrVAXlJ8nYai_G-10" style="edgeStyle=orthogonalEdgeStyle;rounded=0;orthogonalLoop=1;jettySize=auto;html=1;exitX=0.5;exitY=1;exitDx=0;exitDy=0;fontFamily=Georgia;entryX=0.5;entryY=0;entryDx=0;entryDy=0;" parent="1" source="sLgVvRYrVAXlJ8nYai_G-1" target="sLgVvRYrVAXlJ8nYai_G-11" edge="1">
          <mxGeometry relative="1" as="geometry">
            <mxPoint x="110" y="450" as="sourcePoint" />
            <mxPoint x="370" y="840" as="targetPoint" />
          </mxGeometry>
        </mxCell>
        <mxCell id="sLgVvRYrVAXlJ8nYai_G-11" value="data.zip" style="rounded=1;whiteSpace=wrap;html=1;fontFamily=Helvetica;" parent="1" vertex="1">
          <mxGeometry x="200" y="880" width="120" height="40" as="geometry" />
        </mxCell>
        <mxCell id="sLgVvRYrVAXlJ8nYai_G-12" value="New Datafus Version" style="ellipse;whiteSpace=wrap;html=1;aspect=fixed;fontFamily=Georgia;" parent="1" vertex="1">
          <mxGeometry x="220" y="1000" width="80" height="80" as="geometry" />
        </mxCell>
        <mxCell id="sLgVvRYrVAXlJ8nYai_G-13" style="edgeStyle=orthogonalEdgeStyle;rounded=0;orthogonalLoop=1;jettySize=auto;html=1;exitX=0.5;exitY=1;exitDx=0;exitDy=0;fontFamily=Georgia;entryX=0.5;entryY=0;entryDx=0;entryDy=0;" parent="1" source="sLgVvRYrVAXlJ8nYai_G-11" target="sLgVvRYrVAXlJ8nYai_G-12" edge="1">
          <mxGeometry relative="1" as="geometry">
            <mxPoint x="270" y="810" as="sourcePoint" />
            <mxPoint x="270" y="890" as="targetPoint" />
          </mxGeometry>
        </mxCell>
        <mxCell id="sLgVvRYrVAXlJ8nYai_G-14" value="Create" style="text;html=1;strokeColor=none;align=center;verticalAlign=middle;whiteSpace=wrap;rounded=0;dashed=1;fontFamily=Georgia;fillColor=#FFFFFF;" parent="1" vertex="1">
          <mxGeometry x="240" y="820" width="40" height="30" as="geometry" />
        </mxCell>
        <mxCell id="sLgVvRYrVAXlJ8nYai_G-15" value="Release" style="text;html=1;strokeColor=none;align=center;verticalAlign=middle;whiteSpace=wrap;rounded=0;dashed=1;fontFamily=Georgia;fillColor=#FFFFFF;" parent="1" vertex="1">
          <mxGeometry x="240" y="940" width="40" height="30" as="geometry" />
        </mxCell>
        <mxCell id="sLgVvRYrVAXlJ8nYai_G-19" value="Job P" style="text;html=1;strokeColor=none;align=center;verticalAlign=middle;whiteSpace=wrap;rounded=0;dashed=1;fontFamily=Georgia;fontColor=#B266FF;" parent="1" vertex="1">
          <mxGeometry x="210" y="680" width="40" height="20" as="geometry" />
        </mxCell>
        <mxCell id="sLgVvRYrVAXlJ8nYai_G-22" value="&lt;font color=&quot;#FF8000&quot;&gt;Job U&lt;br&gt;&lt;/font&gt;" style="text;html=1;strokeColor=none;align=center;verticalAlign=middle;whiteSpace=wrap;rounded=0;dashed=1;fontFamily=Georgia;fontColor=#97D077;" parent="1" vertex="1">
          <mxGeometry x="210" y="-100" width="40" height="20" as="geometry" />
        </mxCell>
        <mxCell id="HrQ2cZQvFkraFqn7cPHn-2" value="Dofus client" style="rounded=1;whiteSpace=wrap;html=1;fontFamily=Helvetica;" parent="1" vertex="1">
          <mxGeometry x="200" width="120" height="40" as="geometry" />
        </mxCell>
        <mxCell id="HrQ2cZQvFkraFqn7cPHn-6" value="" style="edgeStyle=orthogonalEdgeStyle;rounded=0;orthogonalLoop=1;jettySize=auto;html=1;exitX=0.5;exitY=1;exitDx=0;exitDy=0;fontFamily=Georgia;entryX=0.5;entryY=0;entryDx=0;entryDy=0;" parent="1" source="apTINImMdSON69x1LJTN-1" target="HrQ2cZQvFkraFqn7cPHn-2" edge="1">
          <mxGeometry relative="1" as="geometry">
            <mxPoint x="260" y="-170" as="sourcePoint" />
            <mxPoint x="420" y="160" as="targetPoint" />
            <Array as="points" />
          </mxGeometry>
        </mxCell>
        <mxCell id="HrQ2cZQvFkraFqn7cPHn-5" value="&lt;div style=&quot;font-size: 12px&quot;&gt;&lt;font style=&quot;font-size: 12px&quot; color=&quot;#ff8000&quot;&gt;U1&lt;/font&gt;&lt;/div&gt;&lt;div style=&quot;font-size: 12px&quot;&gt;&lt;font style=&quot;font-size: 12px&quot; color=&quot;#000000&quot;&gt;Update&lt;br&gt;&lt;/font&gt;&lt;/div&gt;" style="text;html=1;strokeColor=none;align=center;verticalAlign=middle;whiteSpace=wrap;rounded=0;dashed=1;fontFamily=Georgia;spacing=0;fontSize=11;fontColor=#FF6666;labelBackgroundColor=none;fillColor=default;" parent="1" vertex="1">
          <mxGeometry x="240" y="-55" width="40" height="30" as="geometry" />
        </mxCell>
        <mxCell id="apTINImMdSON69x1LJTN-34" value="Upload" style="text;html=1;strokeColor=none;align=center;verticalAlign=middle;whiteSpace=wrap;rounded=0;dashed=1;fontFamily=Georgia;fillColor=#FFFFFF;" parent="1" vertex="1">
          <mxGeometry x="240" y="70" width="40" height="20" as="geometry" />
        </mxCell>
      </root>
    </mxGraphModel>
  </diagram>
</mxfile>
